<svg xmlns="http://www.w3.org/2000/svg" viewBox="0 0 746 830" role="img" aria-label="AvaliaLab"><path fill="#2F5D62" d="M0.1 664.2L0.2 498.5L2.1 509.3C6.6 534.9 18.0 560.0 34.9 581.6C37.9 585.4 56.2 604.5 75.5 624.0C94.8 643.5 121.4 670.5 134.5 684.0C147.7 697.4 169.5 719.7 183.0 733.5C241.1 792.8 276.6 828.5 277.8 828.8C278.8 829.1 279.0 815.5 278.8 758.3L278.5 687.4L275.5 681.7C272.4 675.8 271.1 674.4 190.0 592.5C133.3 535.2 131.2 532.9 125.6 522.1C115.9 503.2 115.9 503.6 115.9 426.0C115.9 349.0 115.9 349.9 125.3 331.5C130.1 322.2 137.8 314.1 249.4 201.0L316.0 133.6L316.0 67.3L316.0 1.0L296.2 1.0L276.5 1.0L234.5 43.2C211.4 66.5 176.3 101.9 156.5 122.0C136.8 142.1 104.2 175.1 84.1 195.4C63.9 215.7 44.2 236.0 40.2 240.4C19.3 263.4 4.4 295.4 0.7 325.5C0.5 327.1 0.2 254.6 0.1 164.2L0.0 0.0L373.0 0.0L746.0 0.0L746.0 415.0L746.0 830.0L373.0 830.0L0.0 830.0L0.1 664.2Z"/><path fill="#16181A" fill-rule="evenodd" d="M0.0 415.0L0.0 0.0L214.8 -0.0L429.5 -0.0L429.2 66.6L429.0 133.1L510.3 215.3C624.8 331.1 617.4 323.0 623.9 339.9C628.9 352.9 629.0 354.7 629.0 425.9C629.0 498.0 628.9 498.8 623.4 513.3C618.2 527.0 613.2 532.7 562.6 583.9C536.2 610.6 504.9 642.3 493.0 654.3C476.9 670.6 470.9 677.3 469.0 681.3L466.5 686.5L466.2 758.2L465.9 830.0L233.0 830.0L0.0 830.0L0.0 415.0ZM469.2 829.1C469.4 828.6 514.0 783.3 568.5 728.3C706.1 589.5 709.5 586.0 716.6 575.5C732.0 552.8 740.8 530.6 744.5 505.0C745.6 498.0 745.8 525.6 745.9 663.2L746.0 830.0L607.4 830.0C525.6 830.0 469.0 829.6 469.2 829.1ZM413.0 569.5L413.0 565.0L372.5 565.0L332.0 565.0L332.0 569.5L332.0 574.0L372.5 574.0L413.0 574.0L413.0 569.5ZM410.5 400.0L410.5 397.5L372.2 397.2L334.0 397.0L334.0 400.0L334.0 403.0L372.2 402.8L410.5 402.5L410.5 400.0ZM745.0 327.6C745.0 313.2 734.9 283.1 723.9 264.4C713.3 246.4 707.0 239.9 520.2 51.8L468.9 0.0L607.4 0.0L746.0 0.0L746.0 165.5C746.0 256.5 745.8 331.0 745.5 331.0C745.2 331.0 745.0 329.5 745.0 327.6ZM413.0 231.5L413.0 227.0L372.5 227.0L332.0 227.0L332.0 231.5L332.0 236.0L372.5 236.0L413.0 236.0L413.0 231.5Z"/></svg>